<svg xmlns="http://www.w3.org/2000/svg" width="1080" height="320" viewBox="0 0 1080 320" role="img" aria-labelledby="title desc">
  <title id="title">iCloud Automation Framework</title>
  <desc id="desc">A cloud automation logo with test, sync, and CI signals.</desc>
  <defs>
    <linearGradient id="bg" x1="0" y1="0" x2="1" y2="1">
      <stop offset="0%" stop-color="#0b1220"/>
      <stop offset="58%" stop-color="#10233e"/>
      <stop offset="100%" stop-color="#123a5f"/>
    </linearGradient>
    <linearGradient id="cloud" x1="0" y1="0" x2="1" y2="1">
      <stop offset="0%" stop-color="#7dd3fc"/>
      <stop offset="100%" stop-color="#38bdf8"/>
    </linearGradient>
    <filter id="shadow" x="-20%" y="-20%" width="140%" height="140%">
      <feDropShadow dx="0" dy="16" stdDeviation="18" flood-color="#020617" flood-opacity="0.45"/>
    </filter>
  </defs>
  <rect width="1080" height="320" rx="28" fill="url(#bg)"/>
  <g filter="url(#shadow)">
    <path d="M184 205h168c35 0 63-25 63-57 0-29-22-53-52-57-14-36-49-61-91-61-51 0-93 36-101 83-31 4-55 29-55 59 0 18 8 34 22 45 12 10 28 15 46 15z" fill="url(#cloud)" opacity="0.96"/>
    <path d="M193 203h159c28 0 51-20 51-45 0-23-18-42-43-46-11-29-39-49-73-49-42 0-76 29-82 67-27 3-48 24-48 49 0 14 6 27 17 36 10 8 22 12 39 12z" fill="#e0f2fe" opacity="0.16"/>
  </g>
  <g fill="none" stroke-linecap="round" stroke-linejoin="round">
    <path d="M219 159l28 28 67-74" stroke="#0f172a" stroke-width="13"/>
    <path d="M219 159l28 28 67-74" stroke="#ecfeff" stroke-width="8"/>
    <path d="M433 128h58m-29-29v58" stroke="#60a5fa" stroke-width="8"/>
    <path d="M432 196h75" stroke="#22d3ee" stroke-width="8"/>
    <path d="M533 128h49m-49 34h88m-88 34h61" stroke="#93c5fd" stroke-width="8"/>
  </g>
  <text x="650" y="133" fill="#f8fafc" font-family="Inter, ui-sans-serif, system-ui, -apple-system, BlinkMacSystemFont, Segoe UI, sans-serif" font-size="42" font-weight="750">iCloud Automation</text>
  <text x="650" y="184" fill="#bae6fd" font-family="Inter, ui-sans-serif, system-ui, -apple-system, BlinkMacSystemFont, Segoe UI, sans-serif" font-size="26" font-weight="520">XCTest • Swift async • CI triage</text>
  <text x="650" y="226" fill="#94a3b8" font-family="Inter, ui-sans-serif, system-ui, -apple-system, BlinkMacSystemFont, Segoe UI, sans-serif" font-size="20">sync, retries, failure analysis, coverage gaps</text>
</svg>
